<svg xmlns="http://www.w3.org/2000/svg" viewBox="0 0 60 40" aria-label="China flag" role="img">
  <rect width="60" height="40" fill="#de2910"/>
  <polygon fill="#ffde00" points="10,6 11.8,10.8 16.9,10.8 12.8,13.8 14.4,18.6 10,15.6 5.6,18.6 7.2,13.8 3.1,10.8 8.2,10.8"/>
  <polygon fill="#ffde00" points="21,5 22,7.6 24.8,7.6 22.5,9.2 23.4,11.8 21,10.2 18.6,11.8 19.5,9.2 17.2,7.6 20,7.6"/>
  <polygon fill="#ffde00" points="25,11 26,13.6 28.8,13.6 26.5,15.2 27.4,17.8 25,16.2 22.6,17.8 23.5,15.2 21.2,13.6 24,13.6"/>
  <polygon fill="#ffde00" points="25,19 26,21.6 28.8,21.6 26.5,23.2 27.4,25.8 25,24.2 22.6,25.8 23.5,23.2 21.2,21.6 24,21.6"/>
  <polygon fill="#ffde00" points="21,25 22,27.6 24.8,27.6 22.5,29.2 23.4,31.8 21,30.2 18.6,31.8 19.5,29.2 17.2,27.6 20,27.6"/>
</svg>
