<svg xmlns="http://www.w3.org/2000/svg" viewBox="0 0 60 40" aria-label="United States flag" role="img">
  <rect width="60" height="40" fill="#fff"/>
  <g fill="#b22234">
    <rect y="0" width="60" height="3.08"/>
    <rect y="6.16" width="60" height="3.08"/>
    <rect y="12.32" width="60" height="3.08"/>
    <rect y="18.48" width="60" height="3.08"/>
    <rect y="24.64" width="60" height="3.08"/>
    <rect y="30.8" width="60" height="3.08"/>
    <rect y="36.92" width="60" height="3.08"/>
  </g>
  <rect width="24" height="21.56" fill="#3c3b6e"/>
  <g fill="#fff">
    <circle cx="3" cy="3" r="0.8"/>
    <circle cx="7" cy="3" r="0.8"/>
    <circle cx="11" cy="3" r="0.8"/>
    <circle cx="15" cy="3" r="0.8"/>
    <circle cx="19" cy="3" r="0.8"/>
    <circle cx="5" cy="6" r="0.8"/>
    <circle cx="9" cy="6" r="0.8"/>
    <circle cx="13" cy="6" r="0.8"/>
    <circle cx="17" cy="6" r="0.8"/>
    <circle cx="21" cy="6" r="0.8"/>
    <circle cx="3" cy="9" r="0.8"/>
    <circle cx="7" cy="9" r="0.8"/>
    <circle cx="11" cy="9" r="0.8"/>
    <circle cx="15" cy="9" r="0.8"/>
    <circle cx="19" cy="9" r="0.8"/>
    <circle cx="5" cy="12" r="0.8"/>
    <circle cx="9" cy="12" r="0.8"/>
    <circle cx="13" cy="12" r="0.8"/>
    <circle cx="17" cy="12" r="0.8"/>
    <circle cx="21" cy="12" r="0.8"/>
    <circle cx="3" cy="15" r="0.8"/>
    <circle cx="7" cy="15" r="0.8"/>
    <circle cx="11" cy="15" r="0.8"/>
    <circle cx="15" cy="15" r="0.8"/>
    <circle cx="19" cy="15" r="0.8"/>
    <circle cx="5" cy="18" r="0.8"/>
    <circle cx="9" cy="18" r="0.8"/>
    <circle cx="13" cy="18" r="0.8"/>
    <circle cx="17" cy="18" r="0.8"/>
    <circle cx="21" cy="18" r="0.8"/>
  </g>
</svg>
